<svg xmlns="http://www.w3.org/2000/svg" xmlns:xlink="http://www.w3.org/1999/xlink" width="800" zoomAndPan="magnify" viewBox="0 0 600 599.999999" height="800" preserveAspectRatio="xMidYMid meet" version="1.0"><defs><g/><clipPath id="20c1cc23da"><path d="M 390.984375 306.785156 L 491.726562 306.785156 L 491.726562 394.804688 L 390.984375 394.804688 Z M 390.984375 306.785156 " clip-rule="nonzero"/></clipPath><clipPath id="cf3ec4133f"><path d="M 441.28125 306.785156 L 491.578125 394.804688 L 390.984375 394.804688 Z M 441.28125 306.785156 " clip-rule="nonzero"/></clipPath><clipPath id="f67bcfea23"><path d="M 0.984375 0.785156 L 101.726562 0.785156 L 101.726562 88.804688 L 0.984375 88.804688 Z M 0.984375 0.785156 " clip-rule="nonzero"/></clipPath><clipPath id="3f368e1529"><path d="M 51.28125 0.785156 L 101.578125 88.804688 L 0.984375 88.804688 Z M 51.28125 0.785156 " clip-rule="nonzero"/></clipPath><clipPath id="51b4d5ffe4"><rect x="0" width="102" y="0" height="89"/></clipPath><clipPath id="a45734525e"><path d="M 0.480469 0 L 376.078125 0 L 376.078125 546.480469 L 0.480469 546.480469 Z M 0.480469 0 " clip-rule="nonzero"/></clipPath><clipPath id="f9904e90bf"><rect x="0" width="377" y="0" height="547"/></clipPath><clipPath id="33a39b323f"><rect x="0" width="377" y="0" height="547"/></clipPath><clipPath id="3df80d5d8e"><rect x="0" width="60" y="0" height="54"/></clipPath></defs><g clip-path="url(#20c1cc23da)"><g clip-path="url(#cf3ec4133f)"><g transform="matrix(1, 0, 0, 1, 390, 306)"><g clip-path="url(#51b4d5ffe4)"><g clip-path="url(#f67bcfea23)"><g clip-path="url(#3f368e1529)"><path fill="#1bd77c" d="M 0.984375 0.785156 L 101.726562 0.785156 L 101.726562 88.804688 L 0.984375 88.804688 Z M 0.984375 0.785156 " fill-opacity="1" fill-rule="nonzero"/></g></g></g></g></g></g><g transform="matrix(1, 0, 0, 1, 18, -0.000000000000034788)"><g clip-path="url(#33a39b323f)"><g clip-path="url(#a45734525e)"><g transform="matrix(1, 0, 0, 1, 0, -0.000000000000034788)"><g clip-path="url(#f9904e90bf)"><g fill="#364fab" fill-opacity="1"><g transform="translate(4.714769, 399.039196)"><g><path d="M 10.046875 0 L 10.046875 -98.890625 L 47.515625 -98.890625 C 58.847656 -98.890625 67.023438 -101.335938 72.046875 -106.234375 C 77.066406 -111.128906 79.578125 -119.5 79.578125 -131.34375 L 79.578125 -270.421875 L 190.0625 -270.421875 L 190.0625 -108.9375 C 190.0625 -74.425781 179.4375 -47.640625 158.1875 -28.578125 C 136.945312 -9.523438 107.394531 0 69.53125 0 Z M 10.046875 0 "/></g></g></g><g fill="#364fab" fill-opacity="1"><g transform="translate(181.239709, 399.039196)"><g><path d="M 10.046875 0 L 10.046875 -98.890625 L 47.515625 -98.890625 C 58.847656 -98.890625 67.023438 -101.335938 72.046875 -106.234375 C 77.066406 -111.128906 79.578125 -119.5 79.578125 -131.34375 L 79.578125 -270.421875 L 190.0625 -270.421875 L 190.0625 -108.9375 C 190.0625 -74.425781 179.4375 -47.640625 158.1875 -28.578125 C 136.945312 -9.523438 107.394531 0 69.53125 0 Z M 10.046875 0 "/></g></g></g></g></g></g></g></g><g transform="matrix(1, 0, 0, 1, 513, 347)"><g clip-path="url(#3df80d5d8e)"><g fill="#000000" fill-opacity="1"><g transform="translate(0.267332, 41.894907)"><g><path d="M 14.203125 0 L 8.3125 0 L 8.3125 -22.859375 L 0.78125 -22.859375 L 0.78125 -27.75 L 21.734375 -27.75 L 21.734375 -22.859375 L 14.203125 -22.859375 Z M 14.203125 0 "/></g></g></g><g fill="#000000" fill-opacity="1"><g transform="translate(22.777162, 41.894907)"><g><path d="M 15.25 0 L 8.5625 -21.765625 L 8.390625 -21.765625 C 8.628906 -17.335938 8.75 -14.382812 8.75 -12.90625 L 8.75 0 L 3.5 0 L 3.5 -27.75 L 11.5 -27.75 L 18.078125 -6.53125 L 18.1875 -6.53125 L 25.15625 -27.75 L 33.15625 -27.75 L 33.15625 0 L 27.671875 0 L 27.671875 -13.140625 C 27.671875 -13.753906 27.679688 -14.46875 27.703125 -15.28125 C 27.722656 -16.09375 27.804688 -18.242188 27.953125 -21.734375 L 27.796875 -21.734375 L 20.640625 0 Z M 15.25 0 "/></g></g></g></g></g></svg>